<?xml version="1.0" encoding="UTF-8"?>
<svg id="Layer_2" data-name="Layer 2" xmlns="http://www.w3.org/2000/svg" viewBox="0 0 87.29 94.28">
  <defs>
    <style>
      .cls-1 {
        fill: #fb2c36;
        stroke-width: 0px;
      }
    </style>
  </defs>
  <g id="Layer_1-2" data-name="Layer 1">
    <path class="cls-1" d="m0,59.19c8.75-4.19,16.56-7.93,25.63-12.28C16.77,42.68,9.03,38.98.03,34.69c6.34-8.93,12.25-17.26,18.91-26.65,6.91,7.27,13.36,14.06,20.8,21.88,1.34-10.46,2.5-19.54,3.83-29.93,10,3.16,19.37,6.12,29.8,9.42-4.76,8.85-8.98,16.71-13.82,25.73,9.68-1.66,18.31-3.15,27.73-4.77v33.37c-9.46-1.87-18.14-3.59-27.95-5.53,4.97,9.05,9.3,16.94,14.28,26-10.17,3.4-19.73,6.6-30.1,10.06-1.3-10.38-2.44-19.56-3.78-30.33-7.28,7.74-13.7,14.58-20.86,22.19-6.51-9.29-12.5-17.85-18.88-26.96Z"/>
  </g>
</svg>